<?xml version="1.0" encoding="UTF-8"?>
<!DOCTYPE svg PUBLIC "-//W3C//DTD SVG 1.1//EN" "http://www.w3.org/Graphics/SVG/1.1/DTD/svg11.dtd">
<svg xmlns="http://www.w3.org/2000/svg" version="1.1" width="389px" height="200px" style="shape-rendering:geometricPrecision; text-rendering:geometricPrecision; image-rendering:optimizeQuality; fill-rule:evenodd; clip-rule:evenodd" xmlns:xlink="http://www.w3.org/1999/xlink">
<g><path style="opacity:1" fill="#905108" d="M 4.5,-0.5 C 130.833,-0.5 257.167,-0.5 383.5,-0.5C 384.167,0.166667 384.833,0.833333 385.5,1.5C 384.833,1.5 384.167,1.5 383.5,1.5C 257.167,1.5 130.833,1.5 4.5,1.5C 3.83333,1.5 3.16667,1.5 2.5,1.5C 3.16667,0.833333 3.83333,0.166667 4.5,-0.5 Z"/></g>
<g><path style="opacity:1" fill="#fe9711" d="M 4.5,1.5 C 130.833,1.5 257.167,1.5 383.5,1.5C 384.841,3.83419 384.174,5.50086 381.5,6.5C 256.5,7.83333 131.5,7.83333 6.5,6.5C 3.82586,5.50086 3.15919,3.83419 4.5,1.5 Z"/></g>
<g><path style="opacity:1" fill="#5c3404" d="M 2.5,1.5 C 1.34487,61.4716 1.1782,121.472 2,181.5C 6.24732,183.225 6.41399,184.891 2.5,186.5C 1.70951,185.599 0.709515,184.932 -0.5,184.5C -0.5,124.5 -0.5,64.5 -0.5,4.5C 0.271873,3.30646 1.27187,2.30646 2.5,1.5 Z"/></g>
<g><path style="opacity:1" fill="#cc7300" d="M 6.5,6.5 C 131.5,7.83333 256.5,7.83333 381.5,6.5C 381.5,55.8333 381.5,105.167 381.5,154.5C 380.503,136.341 380.17,118.008 380.5,99.5C 377.833,99.5 375.167,99.5 372.5,99.5C 372.667,76.1643 372.5,52.831 372,29.5C 367.5,25 363,20.5 358.5,16C 354.153,14.8493 350.319,15.6827 347,18.5C 345.566,18.0696 344.399,17.2362 343.5,16C 240.833,15.3333 138.167,15.3333 35.5,16C 34.8095,17.0674 34.3095,18.2341 34,19.5C 30.3398,15.6326 25.8398,14.466 20.5,16C 18.3333,16.8333 16.8333,18.3333 16,20.5C 15.5,46.8312 15.3334,73.1646 15.5,99.5C 12.8333,99.5 10.1667,99.5 7.5,99.5C 7.83018,118.008 7.49684,136.341 6.5,154.5C 6.5,105.167 6.5,55.8333 6.5,6.5 Z"/></g>
<g><path style="opacity:1" fill="#915200" d="M 2.5,1.5 C 3.16667,1.5 3.83333,1.5 4.5,1.5C 3.15919,3.83419 3.82586,5.50086 6.5,6.5C 6.5,55.8333 6.5,105.167 6.5,154.5C 6.17145,167.011 6.50478,179.345 7.5,191.5C 7.5,191.833 7.5,192.167 7.5,192.5C 5.75405,194.252 3.75405,195.585 1.5,196.5C 1.25293,193.061 1.58627,189.728 2.5,186.5C 6.41399,184.891 6.24732,183.225 2,181.5C 1.1782,121.472 1.34487,61.4716 2.5,1.5 Z"/></g>
<g><path style="opacity:1" fill="#8e5000" d="M 383.5,1.5 C 384.167,1.5 384.833,1.5 385.5,1.5C 386.906,1.97306 387.573,2.97306 387.5,4.5C 387.833,63.5038 387.5,122.504 386.5,181.5C 384.185,182.16 382.519,183.493 381.5,185.5C 381.5,175.167 381.5,164.833 381.5,154.5C 381.5,105.167 381.5,55.8333 381.5,6.5C 384.174,5.50086 384.841,3.83419 383.5,1.5 Z"/></g>
<g><path style="opacity:1" fill="#141414" d="M 372.5,99.5 C 372.667,118.503 372.5,137.503 372,156.5C 370.933,157.191 369.766,157.691 368.5,158C 372.165,161.298 373.498,165.465 372.5,170.5C 369.598,174.901 365.432,176.568 360,175.5C 355.338,176.287 351.504,174.954 348.5,171.5C 347.019,172.48 345.685,173.647 344.5,175C 243.5,175.667 142.5,175.667 41.5,175C 40.646,173.978 39.646,173.145 38.5,172.5C 36.0669,175.242 33.0669,176.075 29.5,175C 24.9645,170.297 20.2979,165.797 15.5,161.5C 15.5,140.833 15.5,120.167 15.5,99.5C 15.3334,73.1646 15.5,46.8312 16,20.5C 16.8333,18.3333 18.3333,16.8333 20.5,16C 25.8398,14.466 30.3398,15.6326 34,19.5C 34.3095,18.2341 34.8095,17.0674 35.5,16C 138.167,15.3333 240.833,15.3333 343.5,16C 344.399,17.2362 345.566,18.0696 347,18.5C 350.319,15.6827 354.153,14.8493 358.5,16C 363,20.5 367.5,25 372,29.5C 372.5,52.831 372.667,76.1643 372.5,99.5 Z"/></g>
<g><path style="opacity:1" fill="#b56600" d="M 15.5,99.5 C 15.5,120.167 15.5,140.833 15.5,161.5C 15.3359,164.187 15.5026,166.854 16,169.5C 19.7039,173.036 23.2039,176.702 26.5,180.5C 20.1667,180.5 13.8333,180.5 7.5,180.5C 7.5,184.167 7.5,187.833 7.5,191.5C 6.50478,179.345 6.17145,167.011 6.5,154.5C 7.49684,136.341 7.83018,118.008 7.5,99.5C 10.1667,99.5 12.8333,99.5 15.5,99.5 Z"/></g>
<g><path style="opacity:1" fill="#703f00" d="M 15.5,161.5 C 20.2979,165.797 24.9645,170.297 29.5,175C 33.0669,176.075 36.0669,175.242 38.5,172.5C 39.646,173.145 40.646,173.978 41.5,175C 142.5,175.667 243.5,175.667 344.5,175C 345.685,173.647 347.019,172.48 348.5,171.5C 351.504,174.954 355.338,176.287 360,175.5C 365.432,176.568 369.598,174.901 372.5,170.5C 373.92,180.246 369.754,184.579 360,183.5C 355.338,184.287 351.504,182.954 348.5,179.5C 347.019,180.48 345.685,181.647 344.5,183C 243.5,183.667 142.5,183.667 41.5,183C 40.646,181.978 39.646,181.145 38.5,180.5C 34.4649,184.49 30.4649,184.49 26.5,180.5C 23.2039,176.702 19.7039,173.036 16,169.5C 15.5026,166.854 15.3359,164.187 15.5,161.5 Z"/></g>
<g><path style="opacity:1" fill="#ac6100" d="M 372.5,99.5 C 375.167,99.5 377.833,99.5 380.5,99.5C 380.17,118.008 380.503,136.341 381.5,154.5C 381.5,164.833 381.5,175.167 381.5,185.5C 381.756,187.792 381.423,189.959 380.5,192C 256.167,192.5 131.834,192.667 7.5,192.5C 7.5,192.167 7.5,191.833 7.5,191.5C 7.5,187.833 7.5,184.167 7.5,180.5C 13.8333,180.5 20.1667,180.5 26.5,180.5C 30.4649,184.49 34.4649,184.49 38.5,180.5C 39.646,181.145 40.646,181.978 41.5,183C 142.5,183.667 243.5,183.667 344.5,183C 345.685,181.647 347.019,180.48 348.5,179.5C 351.504,182.954 355.338,184.287 360,183.5C 369.754,184.579 373.92,180.246 372.5,170.5C 373.498,165.465 372.165,161.298 368.5,158C 369.766,157.691 370.933,157.191 372,156.5C 372.5,137.503 372.667,118.503 372.5,99.5 Z"/></g>
<g><path style="opacity:1" fill="#512e04" d="M 2.5,186.5 C 1.58627,189.728 1.25293,193.061 1.5,196.5C 0.833333,195.833 0.166667,195.167 -0.5,194.5C -0.5,192.167 -0.5,189.833 -0.5,187.5C 0.391047,186.89 1.39105,186.557 2.5,186.5 Z"/></g>
<g><path style="opacity:1" fill="#5b3401" d="M 387.5,4.5 C 387.833,4.5 388.167,4.5 388.5,4.5C 388.5,64.5 388.5,124.5 388.5,184.5C 384.5,185.5 384.5,186.5 388.5,187.5C 388.5,189.833 388.5,192.167 388.5,194.5C 387.167,196.5 385.5,198.167 383.5,199.5C 257.167,199.5 130.833,199.5 4.5,199.5C 3.30646,198.728 2.30646,197.728 1.5,196.5C 3.75405,195.585 5.75405,194.252 7.5,192.5C 131.834,192.667 256.167,192.5 380.5,192C 381.423,189.959 381.756,187.792 381.5,185.5C 382.519,183.493 384.185,182.16 386.5,181.5C 387.5,122.504 387.833,63.5038 387.5,4.5 Z"/></g>
</svg>
